<svg width="15" height="20" viewBox="0 0 15 20" fill="none" xmlns="http://www.w3.org/2000/svg">
<path d="M14.0625 5H11.25V4C11.25 2.93913 10.8549 1.92172 10.1517 1.17157C9.44839 0.421427 8.49456 0 7.5 0C6.50544 0 5.55161 0.421427 4.84835 1.17157C4.14509 1.92172 3.75 2.93913 3.75 4V5H0.9375C0.68886 5 0.450403 5.10536 0.274588 5.29289C0.0987722 5.48043 0 5.73478 0 6V17C0 17.7957 0.296316 18.5587 0.823762 19.1213C1.35121 19.6839 2.06658 20 2.8125 20H12.1875C12.9334 20 13.6488 19.6839 14.1762 19.1213C14.7037 18.5587 15 17.7957 15 17V6C15 5.73478 14.9012 5.48043 14.7254 5.29289C14.5496 5.10536 14.3111 5 14.0625 5ZM5.625 4C5.625 3.46957 5.82254 2.96086 6.17418 2.58579C6.52581 2.21071 7.00272 2 7.5 2C7.99728 2 8.47419 2.21071 8.82583 2.58579C9.17746 2.96086 9.375 3.46957 9.375 4V5H5.625V4ZM13.125 17C13.125 17.2652 13.0262 17.5196 12.8504 17.7071C12.6746 17.8946 12.4361 18 12.1875 18H2.8125C2.56386 18 2.3254 17.8946 2.14959 17.7071C1.97377 17.5196 1.875 17.2652 1.875 17V7H3.75V8C3.75 8.26522 3.84877 8.51957 4.02459 8.70711C4.2004 8.89464 4.43886 9 4.6875 9C4.93614 9 5.1746 8.89464 5.35041 8.70711C5.52623 8.51957 5.625 8.26522 5.625 8V7H9.375V8C9.375 8.26522 9.47377 8.51957 9.64959 8.70711C9.8254 8.89464 10.0639 9 10.3125 9C10.5611 9 10.7996 8.89464 10.9754 8.70711C11.1512 8.51957 11.25 8.26522 11.25 8V7H13.125V17Z" fill="#142546"/>
</svg>
